<svg width="8558" height="3772" viewBox="0 0 8558 3772" fill="none" xmlns="http://www.w3.org/2000/svg">
<path d="M1674.05 1368.67L1899.22 468L936 1912.83L1112.36 2175.11L1505.18 2044.18L1385.27 2523.79L1280.01 2944.85L1610.84 2448.6L1693.62 2324.43L2141.6 1652.47L2243.23 1500.02L2146.9 1211.05L2035.45 1248.21L1674.05 1368.67Z" fill="#FF4E08"/>
<path d="M1674.05 1368.67L1660.41 1365.26L1678.5 1382.01L1674.05 1368.67ZM1899.22 468L1910.89 460.156L1887.52 460.202L1899.22 468ZM936 1912.83L924.303 1905.03L922.663 1917.27L936 1912.83ZM1032.32 2201.8L1018.99 2206.24L1020.66 2209.64L1032.32 2201.8ZM1505.18 2044.18L1518.81 2047.59L1500.73 2030.84L1505.18 2044.18ZM1280.01 2944.85L1266.37 2941.44L1268.34 2952.69L1280.01 2944.85ZM2146.9 1211.05L2158.57 1203.21L2142.46 1197.72L2146.9 1211.05ZM2140.71 827.143L2154.35 830.553L2152.38 819.299L2140.71 827.143ZM1273.81 2560.94L1262.15 2568.78L1278.26 2574.27L1273.81 2560.94ZM1521.5 3303.99L1509.83 3311.84L1533.2 3311.79L1521.5 3303.99ZM2484.72 1859.16L2496.42 1866.96L2498.06 1854.72L2484.72 1859.16ZM2388.4 1570.2L2401.73 1565.75L2400.06 1562.35L2388.4 1570.2ZM2141.6 1652.47L2153.29 1660.26H2153.29L2141.6 1652.47ZM1693.62 2324.43L1681.92 2316.63L1693.62 2324.43ZM1610.84 2448.6L1622.54 2456.39L1610.84 2448.6ZM1385.27 2523.79L1398.91 2527.2L1385.27 2523.79ZM1687.69 1372.08L1912.86 471.41L1885.58 464.59L1660.41 1365.26L1687.69 1372.08ZM1887.52 460.202L924.303 1905.03L947.697 1920.63L1910.92 475.798L1887.52 460.202ZM922.663 1917.27L1018.99 2206.24L1045.66 2197.35L949.337 1908.38L922.663 1917.27ZM2256.56 1495.58L2160.24 1206.61L2133.57 1215.5L2229.89 1504.47L2256.56 1495.58ZM1099.4 2180.54L1260.85 2566.36L1286.78 2555.51L1125.33 2169.69L1099.4 2180.54ZM2498.06 1854.72L2401.73 1565.75L2375.06 1574.64L2471.38 1863.61L2498.06 1854.72ZM1533.2 3311.79L2496.42 1866.96L2473.02 1851.37L1509.8 3296.2L1533.2 3311.79ZM1887.55 475.844L2129.05 834.988L2152.38 819.299L1910.89 460.156L1887.55 475.844ZM1285.48 2553.09L1043.99 2193.95L1020.66 2209.64L1262.15 2568.78L1285.48 2553.09ZM1533.17 3296.15L1291.67 2937.01L1268.34 2952.69L1509.83 3311.84L1533.17 3296.15ZM2135.24 1218.9L2376.73 1578.04L2400.06 1562.35L2158.57 1203.21L2135.24 1218.9ZM2231.56 1507.87L2473.05 1867.01L2496.39 1851.32L2254.89 1492.18L2231.56 1507.87ZM2129.9 1644.67L1681.92 2316.63L1705.32 2332.23L2153.29 1660.26L2129.9 1644.67ZM2153.29 1660.26L2254.92 1507.82L2231.53 1492.22L2129.9 1644.67L2153.29 1660.26ZM1124.03 2167.27L947.666 1904.98L924.334 1920.67L1100.7 2182.96L1124.03 2167.27ZM1678.5 1382.01L2039.89 1261.54L2031 1234.87L1669.61 1355.34L1678.5 1382.01ZM2049.08 1251.62L2154.35 830.553L2127.07 823.734L2021.81 1244.8L2049.08 1251.62ZM2142.46 1197.72L2031 1234.87L2039.89 1261.54L2151.35 1224.39L2142.46 1197.72ZM1599.15 2440.8L1268.31 2937.05L1291.7 2952.65L1622.54 2456.39L1599.15 2440.8ZM1622.54 2456.39L1705.32 2332.23L1681.92 2316.63L1599.15 2440.8L1622.54 2456.39ZM1500.73 2030.84L1107.92 2161.78L1116.81 2188.45L1509.62 2057.51L1500.73 2030.84ZM1398.91 2527.2L1518.81 2047.59L1491.54 2040.77L1371.63 2520.38L1398.91 2527.2ZM1278.26 2574.27L1389.72 2537.12L1380.83 2510.45L1269.37 2547.6L1278.26 2574.27ZM1371.63 2520.38L1266.37 2941.44L1293.65 2948.26L1398.91 2527.2L1371.63 2520.38Z" fill="#FF4E08"/>
<path d="M7225.74 2836V2590.07L6985 2144.9V2120H7139.61L7281.78 2383.57L7295.27 2442.72H7314.98L7329.51 2383.57L7470.63 2120H7622.14V2143.87L7381.39 2590.07V2836H7225.74Z" fill="white"/>
<path d="M4637.31 2836V2247.63H4436V2120H4983.9V2247.63H4783.62V2836H4637.31Z" fill="white"/>
<path d="M3679 2836V2120H4165.67V2251.79H3834.65V2457.25H4121.05V2581.77H3835.69V2836H3679Z" fill="white"/>
<path d="M3276.55 2846C3067.74 2846 2953 2713.69 2953 2479.03C2953 2242.31 3067.74 2110 3276.55 2110C3485.36 2110 3599.07 2242.31 3599.07 2479.03C3599.07 2713.69 3486.39 2846 3276.55 2846ZM3114.26 2479.03C3114.26 2636.16 3170.08 2719.89 3276.55 2719.89C3385.09 2719.89 3437.81 2635.12 3437.81 2478C3437.81 2318.81 3384.06 2235.08 3276.55 2235.08C3170.08 2235.08 3114.26 2318.81 3114.26 2479.03Z" fill="white"/>
<path d="M5352.55 2846C5143.74 2846 5029 2713.69 5029 2479.03C5029 2242.31 5143.74 2110 5352.55 2110C5561.36 2110 5675.07 2242.31 5675.07 2479.03C5675.07 2713.69 5562.39 2846 5352.55 2846ZM5190.26 2479.03C5190.26 2636.16 5246.08 2719.89 5352.55 2719.89C5461.09 2719.89 5513.81 2635.12 5513.81 2478C5513.81 2318.81 5460.06 2235.08 5352.55 2235.08C5246.08 2235.08 5190.26 2318.81 5190.26 2479.03Z" fill="white"/>
<path d="M5775 2836V2120H6053.1C6280.35 2120 6381.01 2241.41 6381.01 2478C6381.01 2714.59 6280.35 2836 6053.1 2836H5775ZM5930.65 2711.48H6045.83C6167.24 2711.48 6218.09 2630.54 6218.09 2478C6218.09 2324.42 6167.24 2244.52 6045.83 2244.52H5930.65V2711.48Z" fill="white"/>
<path d="M6406 2836V2812.13L6633.25 2120H6847.01L7074.27 2811.1V2836H6925.88L6886.45 2713.55H6591.74L6553.35 2836H6406ZM6629.1 2595.26H6849.09L6758.81 2313.01L6747.4 2242.45H6727.68L6717.3 2313.01L6629.1 2595.26Z" fill="white"/>
<path d="M7063.33 1662C6883.99 1662 6783.44 1588.4 6771 1446.38H6926.49C6937.9 1518.95 6988.69 1554.19 7069.55 1554.19C7145.22 1554.19 7194.98 1518.95 7194.98 1459.86C7194.98 1410.1 7163.88 1380.04 7086.13 1359.31L6959.66 1330.28C6839.42 1299.18 6782.4 1231.8 6782.4 1134.36C6782.4 1007.89 6883.99 926 7063.33 926C7232.3 926 7329.74 1003.75 7341.14 1137.47H7187.72C7176.32 1062.83 7124.49 1033.81 7059.18 1033.81C6986.62 1033.81 6943.08 1068.02 6943.08 1120.88C6943.08 1163.39 6968.99 1191.37 7033.26 1209L7160.77 1239.06C7301.75 1275.34 7358.76 1344.79 7358.76 1443.27C7358.76 1580.11 7248.88 1662 7063.33 1662Z" fill="white"/>
<path d="M6129 1652V936H6451.72C6623.97 936 6696.61 1010.71 6696.61 1123.82C6696.61 1205.8 6653.03 1268.06 6589.73 1289.85L6532.66 1284.66V1301.26C6636.43 1311.64 6688.31 1363.52 6688.31 1474.56V1562.76C6688.31 1592.85 6689.35 1614.64 6705.95 1630.21V1652H6549.26C6534.73 1635.4 6528.51 1610.49 6528.51 1576.25V1488.05C6528.51 1417.48 6499.45 1382.2 6411.25 1382.2H6284.65V1652H6129ZM6284.65 1265.98H6410.21C6499.45 1265.98 6535.77 1221.36 6535.77 1158.06C6535.77 1091.65 6502.57 1051.18 6410.21 1051.18H6284.65V1265.98Z" fill="white"/>
<path d="M4836 1652V936H5114.1C5341.35 936 5442.01 1057.41 5442.01 1294C5442.01 1530.59 5341.35 1652 5114.1 1652H4836ZM4991.65 1527.48H5106.83C5228.24 1527.48 5279.09 1446.54 5279.09 1294C5279.09 1140.42 5228.24 1060.52 5106.83 1060.52H4991.65V1527.48Z" fill="white"/>
<path d="M4093 1652V1628.13L4320.25 936H4534.01L4761.27 1627.1V1652H4612.88L4573.45 1529.55H4278.74L4240.35 1652H4093ZM4316.1 1411.26H4536.09L4445.81 1129.01L4434.4 1058.45H4414.68L4404.3 1129.01L4316.1 1411.26Z" fill="white"/>
<path d="M3526 1652V936H4012.67V1059.48H3670.24V1227.59H3962.86V1344.85H3670.24V1529.55H4017.86V1652H3526Z" fill="white"/>
<path d="M5532 1652V936H6018.67V1059.48H5676.24V1227.59H5968.86V1344.85H5676.24V1529.55H6023.86V1652H5532Z" fill="white"/>
<path d="M2953 1652.01V936H3108.65V1512.96H3421V1652.01H2953Z" fill="white"/>
</svg>
