<svg width="44" height="45" viewBox="0 0 44 45" fill="none" xmlns="http://www.w3.org/2000/svg">
<path d="M39.71 19.1604H38.25V19.0852H21.9375V26.3352H32.1808C30.6864 30.5556 26.6708 33.5852 21.9375 33.5852C15.9318 33.5852 11.0625 28.7159 11.0625 22.7102C11.0625 16.7045 15.9318 11.8352 21.9375 11.8352C24.7097 11.8352 27.2318 12.881 29.1522 14.5893L34.2788 9.46264C31.0417 6.44574 26.7116 4.58521 21.9375 4.58521C11.928 4.58521 3.8125 12.7007 3.8125 22.7102C3.8125 32.7197 11.928 40.8352 21.9375 40.8352C31.947 40.8352 40.0625 32.7197 40.0625 22.7102C40.0625 21.4949 39.9374 20.3086 39.71 19.1604Z" fill="#FFC107"/>
<path d="M5.90237 14.2739L11.8573 18.6411C13.4687 14.6518 17.371 11.8352 21.9376 11.8352C24.7098 11.8352 27.2319 12.881 29.1522 14.5893L34.2789 9.46264C31.0418 6.44574 26.7117 4.58521 21.9376 4.58521C14.9757 4.58521 8.93831 8.51561 5.90237 14.2739Z" fill="#FF3D00"/>
<path d="M21.9374 40.8352C26.6191 40.8352 30.8731 39.0436 34.0894 36.13L28.4797 31.383C26.6599 32.7614 24.3979 33.5852 21.9374 33.5852C17.2231 33.5852 13.2202 30.5792 11.7122 26.3842L5.80167 30.9381C8.80135 36.8078 14.8932 40.8352 21.9374 40.8352Z" fill="#4CAF50"/>
<path d="M39.71 19.1604H38.25V19.0852H21.9375V26.3352H32.1808C31.4631 28.3625 30.159 30.1106 28.477 31.3839L28.4797 31.3821L34.0894 36.129C33.6925 36.4897 40.0625 31.7727 40.0625 22.7102C40.0625 21.4949 39.9374 20.3086 39.71 19.1604Z" fill="#1976D2"/>
</svg>
