<svg width="1916" height="1096" viewBox="0 0 1916 1096" fill="none" xmlns="http://www.w3.org/2000/svg">
<path d="M492 354.22L552.22 294H659.277L719.497 370.948L686.042 454.586L602.403 494.733L508.728 444.55L492 354.22Z" fill="#D94782"/>
<path d="M997.5 853H793.5L900.156 668.701L997.5 853Z" fill="#D94782"/>
<path d="M1720.41 822.596V613.092L1482.28 615.172V822.596H1720.41Z" fill="#D94782"/>
<path d="M492 354.22L552.22 294H659.277L719.497 370.948L686.042 454.586L602.403 494.733L508.728 444.55L492 354.22Z" stroke="#D94782"/>
<path d="M997.5 853H793.5L900.156 668.701L997.5 853Z" stroke="#D94782"/>
<path d="M1720.41 822.596V613.092L1482.28 615.172V822.596H1720.41Z" stroke="#D94782"/>
<path d="M360.984 520H27.768V464.464H360.984C368.794 464.464 375.302 461.861 380.509 456.654C386.004 451.159 388.752 444.506 388.752 436.696C388.752 428.886 386.004 422.378 380.509 417.172C375.302 411.676 368.794 408.928 360.984 408.928H249.912C226.772 408.928 207.103 400.829 190.905 384.631C174.707 368.433 166.608 348.764 166.608 325.624C166.608 302.484 174.707 282.815 190.905 266.617C207.103 250.419 226.772 242.32 249.912 242.32H416.52V297.856H249.912C242.102 297.856 235.45 300.604 229.954 306.1C224.747 311.306 222.144 317.814 222.144 325.624C222.144 333.434 224.747 340.087 229.954 345.582C235.45 350.789 242.102 353.392 249.912 353.392H360.984C384.124 353.392 403.793 361.491 419.991 377.689C436.189 393.887 444.288 413.556 444.288 436.696C444.288 459.836 436.189 479.505 419.991 495.703C403.793 511.901 384.124 520 360.984 520ZM617.838 462.729L572.281 381.16H627.817L659.924 439.299C675.544 423.101 683.353 403.722 683.353 381.16C683.353 358.02 675.254 338.351 659.056 322.153C642.858 305.955 623.189 297.856 600.049 297.856C576.909 297.856 557.24 305.955 541.042 322.153C524.844 338.351 516.745 358.02 516.745 381.16C516.745 404.3 524.844 423.969 541.042 440.167C557.24 456.365 576.909 464.464 600.049 464.464C606.124 464.464 612.053 463.886 617.838 462.729ZM687.692 489.195L766.657 631.072H711.121L645.606 513.058C631.433 517.686 616.247 520 600.049 520C561.579 520 528.749 506.55 501.56 479.65C474.659 452.46 461.209 419.63 461.209 381.16C461.209 342.69 474.659 310.005 501.56 283.104C528.749 255.915 561.579 242.32 600.049 242.32C638.52 242.32 671.205 255.915 698.105 283.104C725.295 310.005 738.889 342.69 738.889 381.16C738.889 419.63 725.439 452.316 698.539 479.216C695.068 482.687 691.452 486.013 687.692 489.195ZM767.959 381.16V242.32H823.495V381.16C823.495 404.3 831.594 423.969 847.792 440.167C863.99 456.365 883.659 464.464 906.799 464.464C929.939 464.464 949.608 456.365 965.806 440.167C982.004 423.969 990.103 404.3 990.103 381.16V103.48H1045.64V381.16C1045.64 419.63 1032.04 452.46 1004.85 479.65C977.955 506.55 945.269 520 906.799 520C868.329 520 835.499 506.55 808.309 479.65C781.409 452.46 767.959 419.63 767.959 381.16ZM1149.77 520H1094.23V242.32H1149.77V520ZM1405.76 520H1211.38V242.32H1405.76C1444.23 242.32 1476.91 255.915 1503.81 283.104C1531 310.005 1544.6 342.69 1544.6 381.16C1544.6 419.63 1531 452.46 1503.81 479.65C1476.91 506.55 1444.23 520 1405.76 520ZM1266.92 464.464H1405.76C1428.9 464.464 1448.56 456.365 1464.76 440.167C1480.96 423.969 1489.06 404.3 1489.06 381.16C1489.06 358.02 1480.96 338.351 1464.76 322.153C1448.56 305.955 1428.9 297.856 1405.76 297.856H1266.92V464.464Z" fill="white"/>
<path d="M513.206 575.536H735.351L707.583 631.072H513.206C490.066 631.072 470.397 639.171 454.199 655.369C438.001 671.567 429.902 691.236 429.902 714.376C429.902 737.516 438.001 757.185 454.199 773.383C470.397 789.581 490.066 797.68 513.206 797.68H655.084L624.279 742.144H513.206V686.608H652.047L818.655 992.056H763.119L685.889 853.216H513.206C474.736 853.216 441.906 839.766 414.717 812.866C387.817 785.676 374.366 752.846 374.366 714.376C374.366 675.906 387.817 643.221 414.717 616.32C441.906 589.131 474.736 575.536 513.206 575.536ZM756.177 853.216L895.017 561.652L1033.86 853.216H971.379L895.017 693.55L818.655 853.216H756.177ZM1103.28 686.608V853.216H1047.74V575.536H1103.28L1214.35 783.796L1325.42 575.536H1380.96V853.216H1325.42V686.608L1242.12 853.216H1186.58L1103.28 686.608ZM1886.86 742.144H1567.52V686.608H1886.86V742.144ZM1720.25 575.536V631.072H1498.1V797.68H1720.25V853.216H1442.57V575.536H1720.25Z" fill="white"/>
</svg>
